<svg xmlns="http://www.w3.org/2000/svg" viewBox="0 0 58.393 36.004">
  <defs>
    <style>
      .cls-1 {
        fill: #fff;
      }
    </style>
  </defs>
  <g id="behance" transform="translate(0 -87.888)">
    <path id="Path_2" data-name="Path 2" class="cls-1" d="M24.712,103.014a9.769,9.769,0,0,0,1.554-5.462,9.913,9.913,0,0,0-9.956-9.664H1.275A1.275,1.275,0,0,0,0,89.163v33.065A1.275,1.275,0,0,0,1.275,123.5h16.8a11.274,11.274,0,0,0,6.642-20.49ZM6.6,94.484h9.843a3.233,3.233,0,1,1,0,6.466H6.6Zm11.621,22.423H6.6v-9.361H18.217a4.681,4.681,0,0,1,0,9.361Z"/>
    <path id="Path_3" data-name="Path 3" class="cls-1" d="M273.091,165.271a13.534,13.534,0,1,0-13.527,13.963,13.4,13.4,0,0,0,11.25-6.207,14.093,14.093,0,0,0,.852-1.513.573.573,0,0,0-.516-.821l-6.65-.017a.562.562,0,0,0-.392.162,6.293,6.293,0,0,1-4.544,1.8,7.052,7.052,0,0,1-6.764-5.767h18.968a1.324,1.324,0,0,0,1.324-1.324ZM259.564,157.9a6.837,6.837,0,0,1,5.794,3.33H253.771A6.837,6.837,0,0,1,259.564,157.9Z" transform="translate(-214.699 -55.342)"/>
    <path id="Path_4" data-name="Path 4" class="cls-1" d="M307.227,103.93h-12a1.014,1.014,0,0,1-1.014-1.014v-3.01a1.014,1.014,0,0,1,1.014-1.014h12a1.014,1.014,0,0,1,1.014,1.014v3.01A1.014,1.014,0,0,1,307.227,103.93Z" transform="translate(-256.74 -9.603)"/>
  </g>
</svg>
